<svg xmlns="http://www.w3.org/2000/svg" xmlns:xlink="http://www.w3.org/1999/xlink" viewBox="0 0 1024 1024"><defs><style>.cls-1{fill:url(#linear-gradient);}.cls-2{fill:#fcfcfc;}</style><linearGradient id="linear-gradient" x1="68.08" y1="955.92" x2="955.92" y2="68.08" gradientUnits="userSpaceOnUse"><stop offset="0" stop-color="#21d4fd"/><stop offset="1" stop-color="#b721ff"/></linearGradient><symbol id="Icon" data-name="Icon" viewBox="0 0 1024 1024"><path id="App_Icon_Placeholder" data-name="App Icon Placeholder" class="cls-1" d="M357,0H667C769.8,0,821.18,0,876.52,17.49a217.47,217.47,0,0,1,130,130C1024,202.83,1024,254.22,1024,357V667c0,102.8,0,154.19-17.5,209.53a217.43,217.43,0,0,1-130,130C821.18,1024,769.8,1024,667,1024H357c-102.79,0-154.17,0-209.51-17.5a217.43,217.43,0,0,1-130-130C0,821.18,0,769.79,0,667V357C0,254.22,0,202.83,17.5,147.48a217.47,217.47,0,0,1,130-130C202.82,0,254.2,0,357,0h0"/><path class="cls-2" d="M873.52,297.15l-353.39-202a16.34,16.34,0,0,0-16.24,0l-353.39,202a16.37,16.37,0,0,0-8.24,14.21v395.9a16.36,16.36,0,0,0,8.08,14.12L503.73,928.55a16.34,16.34,0,0,0,16.55,0L873.67,721.38a16.37,16.37,0,0,0,8.09-14.12V311.36a16.39,16.39,0,0,0-8.24-14.21ZM175,339.47l119.79,68L175,639.82Zm410.66,77.92h93.52L512,706.9,344.86,417.39h93.51a16.36,16.36,0,1,0,0-32.72H347.18L512,138.75,676.83,384.67H585.64a16.36,16.36,0,0,0,0,32.72ZM482,720.45,184.29,693.18l133-258ZM706.69,435.16l133,258L542,720.45Zm5.94-55.87L564.42,158.17,832.34,311.31Zm-401.25,0-119.71-68L459.6,158.17ZM495.64,754.56V885.87L230.18,730.25Zm32.73,0,265.46-24.31L528.37,885.87ZM729.25,407.5l119.78-68V639.82Z"/><circle class="cls-2" cx="512.01" cy="401.03" r="16.36"/></symbol></defs><g id="Layer_2" data-name="Layer 2"><g id="App_Icon_Kit_A" data-name="App Icon Kit A"><g id="App_Icon_and_Badge_-_Main" data-name="App Icon and Badge - Main"><g id="_1024" data-name="1024"><use id="_YOUR_ICON_HERE_" data-name="[YOUR ICON HERE]" width="1024" height="1024" xlink:href="#Icon"/></g></g></g></g></svg>